<?xml version="1.0" encoding="utf-8"?>
<!-- Generator: Adobe Illustrator 27.7.0, SVG Export Plug-In . SVG Version: 6.00 Build 0)  -->
<svg version="1.1" id="Layer_1" xmlns="http://www.w3.org/2000/svg" xmlns:xlink="http://www.w3.org/1999/xlink" x="0px" y="0px"
	 viewBox="0 0 1920 1080" style="enable-background:new 0 0 1920 1080;" xml:space="preserve">
<style type="text/css">
	.st0{fill:none;}
	.st1{fill:none;stroke:#000000;stroke-width:2;stroke-miterlimit:10;}
	.st2{fill:#FFFFFF;}
</style>
<g>
	<polygon class="st2" points="1360.1,485.1 1339.94,485.1 1339.94,589.79 1412.09,589.79 1412.09,572.51 1360.1,572.51 	"/>
	<g>
		<polygon class="st2" points="1255.51,485.1 1235.34,485.1 1235.34,589.72 1235.34,589.79 1255.51,589.79 		"/>
		<path class="st2" d="M1285.75,485.1h-22.94v17.14h18.48c10.23,0,17.57,4.18,17.57,16.71c0,14.98-9.65,18.43-19.15,18.43h-16.89
			v16.71h15.89c27.79,0,41.04-16.42,41.04-36.72C1319.74,499.64,1308.79,485.1,1285.75,485.1z"/>
		<polygon class="st2" points="1152.19,485.1 1152.19,589.79 1171.78,589.79 1171.78,531.9 1170.62,506.27 1171.49,505.98 
			1184.45,531.9 1215.7,589.79 1215.76,589.66 1215.76,589.72 1235.34,589.72 1180.85,485.1 		"/>
	</g>
	<g>
		<rect x="1457.11" y="527.29" class="st2" width="46.18" height="16.85"/>
		<polygon class="st2" points="1450.19,544.14 1450.19,527.29 1450.19,502.38 1450.19,485.1 1430.03,485.1 1430.03,589.79 
			1450.19,589.79 1450.19,572.51 		"/>
		<rect x="1457.11" y="485.1" class="st2" width="47.8" height="17.28"/>
		<rect x="1457.11" y="572.51" class="st2" width="47.8" height="17.28"/>
	</g>
	<g>
		<rect x="1083.53" y="527.29" class="st2" width="46.18" height="16.85"/>
		<polygon class="st2" points="1076.61,544.14 1076.61,527.29 1076.61,502.38 1076.61,485.1 1056.45,485.1 1056.45,589.79 
			1076.61,589.79 1076.61,572.51 		"/>
		<rect x="1083.53" y="485.1" class="st2" width="47.8" height="17.28"/>
		<rect x="1083.53" y="572.51" class="st2" width="47.8" height="17.28"/>
	</g>
</g>
</svg>
